<svg width="96" height="96" viewBox="0 0 96 96" fill="none" xmlns="http://www.w3.org/2000/svg">
<path d="M48.6 12C38.7 12 27.9 15.6 25.5 27.9C25.2 29.1 26.1 30 27 30L36.9 30.9C37.8 30.9 38.7 30 38.7 29.1C39.6 24.9 43.2 22.8 47.1 22.8C49.2 22.8 51.6 23.7 52.8 25.5C54.3 27.6 54 30.6 54 33V34.5C48 35.1 40.2 35.7 34.5 38.1C27.9 40.8 23.4 46.5 23.4 55.2C23.4 66 30.3 71.4 39 71.4C46.5 71.4 50.4 69.6 56.1 63.9C57.9 66.6 58.8 68.1 62.1 70.8C63 71.1 63.9 71.1 64.5 70.5C66.6 68.7 70.5 65.4 72.6 63.6C73.5 63 73.2 61.8 72.6 60.9C70.8 58.2 68.7 56.1 68.7 51.3V35.1C68.7 28.2 69.3 21.9 64.2 17.1C60.3 13.2 53.7 12 48.6 12ZM51.3 42.9C52.2 42.9 53.1 42.9 54 42.9V45.3C54 49.2 54.3 52.8 52.2 56.4C50.7 59.4 48 61.2 45 61.2C41.1 61.2 38.7 58.2 38.7 53.7C38.7 45.6 44.7 43.5 51.3 42.9ZM80.1 67.2C77.4 67.2 74.4 67.8 72 69.6C71.4 70.2 71.4 70.8 72.3 70.8C75 70.5 80.7 69.6 81.9 71.1C83.1 72.6 80.7 78 79.8 80.4C79.5 81 80.1 81.3 80.7 81C85.2 77.4 86.4 69.6 85.5 68.4C84.9 67.5 82.8 67.2 80.1 67.2ZM11.1 68.4C10.5 68.4 10.2 69.3 10.8 69.6C20.7 78.6 33.6 83.7 48 83.7C58.2 83.7 70.2 80.4 78.6 74.4C80.1 73.5 78.9 71.7 77.4 72.3C68.1 76.2 58.2 78 48.9 78C35.4 78 22.5 74.4 11.7 68.1C11.4 68.7 11.1 68.4 11.1 68.4Z" fill="white"/>
</svg>
