<svg width="96" height="96" viewBox="0 0 96 96" fill="none" xmlns="http://www.w3.org/2000/svg">
<path d="M48 9C26.4961 9 9 26.4961 9 48C9 69.5039 26.4961 87 48 87C69.5039 87 87 69.5039 87 48C87 26.4961 69.5039 9 48 9ZM48 15C66.2578 15 81 29.7422 81 48C81 66.2578 66.2578 81 48 81C29.7422 81 15 66.2578 15 48C15 29.7422 29.7422 15 48 15ZM43.5469 38.3555L35.4141 44.7539C34.4297 42.2812 31.8047 39.9727 28.1484 39.9727H21.2109V55.4531H28.1484C31.418 55.4531 34.2422 53.4961 35.4141 50.6719L43.5469 57.0703L52.4297 50.0742L52.4414 55.4531H63.2227V50.918H57.8438V39.9727H52.4414V45.3398L44.9883 51.1992L43.5469 50.0742L51 44.2148L47.9883 41.8594L40.5469 47.707L39.1055 46.5938L46.5586 40.7344L43.5469 38.3555ZM64.6523 39.9727V55.4531H75.4336V50.9414H70.0664V39.9727H64.6523ZM26.4141 44.4258H27.6094C29.5781 44.4258 30.9727 45.6094 30.9727 47.7188C30.9727 50.0156 29.4023 51.0117 27.5859 51.0117H26.4141V44.4258Z" fill="white"/>
</svg>
