<svg width="96" height="96" viewBox="0 0 96 96" fill="none" xmlns="http://www.w3.org/2000/svg">
<path d="M48 9C26.4609 9 9 26.4609 9 48C9 69.5391 26.4609 87 48 87C69.5391 87 87 69.5391 87 48C87 26.4609 69.5391 9 48 9ZM48 15C60.6797 15 71.707 22.207 77.2266 32.7305C76.3594 31.5938 74.9062 30.8906 73.0195 30.8906H58.5469L46.3125 65.1562L40.8281 80.1914C31.957 78.2109 24.4336 72.6562 19.8281 65.1094H27.1406L37.4062 36.5977H43.3477L33.0469 65.1094H40.3125L50.0508 37.6055C51.3984 33.9141 49.2773 30.8906 45.3516 30.8906H39.4219L45.0938 15.1406C46.0547 15.0586 47.0156 15 48 15ZM36.5273 17.0977L19.5 64.5469C16.6523 59.6719 15 54.0352 15 48C15 33.8438 23.9766 21.7734 36.5273 17.0977ZM77.9297 34.1836C79.875 38.4023 81 43.0664 81 48C81 66.1992 66.1992 81 48 81C47.9766 81 47.9648 81 47.9414 81L53.7422 65.0742H64.1719C66 65.0742 68.0039 63.668 68.625 61.957L77.7188 37.6055C78.1758 36.3516 78.1992 35.1914 77.9297 34.1836ZM64.7461 36.5977H70.6523L62.1094 59.4023H56.2031L64.7461 36.5977Z" fill="white"/>
</svg>
