<svg width="96" height="96" viewBox="0 0 96 96" fill="none" xmlns="http://www.w3.org/2000/svg">
<path d="M15 15V81H81V15H15ZM21 21H75V75H21V21ZM60.7324 45C56.4574 45 53.6953 47.7364 53.6953 51.3574C53.6953 55.2904 56.0015 57.1703 59.4785 58.6523L60.6797 59.168C62.8757 60.137 64.1836 60.7025 64.1836 62.3555C64.1836 63.7505 62.9032 64.752 60.9082 64.752C58.5442 64.752 57.1998 63.4994 56.1738 61.8164L52.2422 64.0664C53.6372 66.8594 56.5435 69 61.0195 69C65.5795 69 69 66.6347 69 62.3027C69 58.2557 66.691 56.4577 62.584 54.7207L61.3887 54.2051C59.3097 53.2931 58.4238 52.6945 58.4238 51.2695C58.4238 50.0995 59.3074 49.1895 60.7324 49.1895C62.1304 49.1895 63.0099 49.7875 63.8379 51.2695L67.6055 48.8496C66.0095 46.0566 63.8104 45 60.7324 45ZM43.1836 45.2871V61.6758C43.1836 64.0698 42.1569 64.6934 40.5879 64.6934C38.9349 64.6934 38.2234 63.5558 37.4824 62.2148L33.5508 64.582C34.6908 67.006 36.9381 69 40.7871 69C45.0621 69 48 66.7175 48 61.7285V45.2871H43.1836Z" fill="white"/>
</svg>
