<svg width="96" height="96" viewBox="0 0 96 96" fill="none" xmlns="http://www.w3.org/2000/svg">
<path d="M21.5977 12C16.3313 12 12 16.3313 12 21.5977V74.4023C12 79.6687 16.3313 84 21.5977 84H74.4023C79.6687 84 84 79.6687 84 74.4023V21.5977C84 16.3313 79.6687 12 74.4023 12H21.5977ZM21.5977 18H74.4023C76.4259 18 78 19.5741 78 21.5977V74.4023C78 76.4259 76.4259 78 74.4023 78H21.5977C19.5741 78 18 76.4259 18 74.4023V21.5977C18 19.5741 19.5741 18 21.5977 18ZM33 24.0059L33.0234 24.0527C33.0234 24.4307 33.011 71.976 33.041 72C33.071 72.024 38.0038 70.8105 43.0078 70.8105V47.4082L53.0156 70.8105C58.0196 70.8105 62.9466 72.024 62.9766 72C63.0066 71.979 62.9941 24.041 62.9941 24.041L53.0098 24.0059V48.0176C48.0118 36.0116 43.0078 24.0059 43.0078 24.0059H33Z" fill="white"/>
</svg>
