<svg width="54" height="54" viewBox="0 0 54 54" fill="none" xmlns="http://www.w3.org/2000/svg">
<g clip-path="url(#clip0_82_52)">
<rect x="0.69342" y="0.141113" width="53.1059" height="53.1059" rx="15" fill="white"/>
<rect x="0.69342" y="0.141113" width="65" height="65" rx="10" fill="white"/>
<path d="M6.91983 28.063C6.67881 28.2313 6.50882 28.483 6.44282 28.7694C6.37682 29.0558 6.4195 29.3566 6.56259 29.6133L9.47443 34.6551C9.77325 35.1719 10.4585 35.3853 10.9955 35.1225L19.8883 30.8154V46.2823H24.3819V28.636L33.5286 24.2031L27.642 14.0026L6.91983 28.063ZM45.6298 10.4168C44.4189 8.32286 42.4262 6.79544 40.0896 6.17022C37.753 5.54499 35.2638 5.87314 33.1691 7.08252C31.1245 8.26208 29.7809 10.1359 29.1226 12.2254L35.8091 23.8099C37.9458 24.2862 40.242 24.057 42.291 22.8775C44.3862 21.6678 45.9149 19.6754 46.541 17.3386C47.1672 15.0017 46.8394 12.5119 45.6298 10.4168Z" fill="#59CE8F"/>
</g>
<defs>
<clipPath id="clip0_82_52">
<rect x="0.69342" y="0.141113" width="53.1059" height="53.1059" rx="15" fill="white"/>
</clipPath>
</defs>
</svg>
