<svg width="54" height="54" viewBox="0 0 54 54" fill="none" xmlns="http://www.w3.org/2000/svg">
<rect x="0.242432" y="0.141113" width="53.1059" height="53.1059" rx="10" fill="white"/>
<g clip-path="url(#clip0_82_54)">
<path d="M32.8893 22.2685C35.0268 22.2685 36.7616 24.0033 36.7616 26.1408V33.3323H36.7527V35.545H16.838V28.9068H16.8424V26.1408C16.8424 24.0033 18.575 22.2685 20.7147 22.2685H32.8893ZM48.9228 26.1408C48.9228 25.1138 48.5149 24.1289 47.7887 23.4027C47.0625 22.6765 46.0775 22.2685 45.0505 22.2685H37.5825C38.4521 23.3196 38.9743 24.6694 38.9743 26.1408V28.9068H38.9655V35.545H47.2633C47.7034 35.545 48.1255 35.3702 48.4368 35.0589C48.748 34.7477 48.9228 34.3256 48.9228 33.8855V26.1408ZM14.6253 33.3323H14.6297V26.1408L14.6496 25.654C14.7451 24.4107 15.2245 23.2277 16.0215 22.2685H8.5402L8.22157 22.2818C7.25304 22.3618 6.35 22.803 5.69169 23.5179C5.03337 24.2327 4.66793 25.169 4.66789 26.1408V33.8855C4.66789 34.8015 5.41138 35.545 6.32745 35.545H14.6253V33.3323ZM26.7954 6.7793C28.5559 6.7793 30.2444 7.47868 31.4893 8.72359C32.7342 9.9685 33.4336 11.657 33.4336 13.4175C33.4336 15.1781 32.7342 16.8666 31.4893 18.1115C30.2444 19.3564 28.5559 20.0558 26.7954 20.0558C25.0348 20.0558 23.3463 19.3564 22.1014 18.1115C20.8565 16.8666 20.1571 15.1781 20.1571 13.4175C20.1571 11.657 20.8565 9.9685 22.1014 8.72359C23.3463 7.47868 25.0348 6.7793 26.7954 6.7793ZM41.1782 8.99204C42.6454 8.99204 44.0524 9.57486 45.0899 10.6123C46.1273 11.6497 46.7101 13.0568 46.7101 14.5239C46.7101 15.9911 46.1273 17.3981 45.0899 18.4355C44.0524 19.473 42.6454 20.0558 41.1782 20.0558C39.7111 20.0558 38.304 19.473 37.2666 18.4355C36.2292 17.3981 35.6464 15.9911 35.6464 14.5239C35.6464 13.0568 36.2292 11.6497 37.2666 10.6123C38.304 9.57486 39.7111 8.99204 41.1782 8.99204ZM12.4125 8.99204C13.8797 8.99204 15.2867 9.57486 16.3241 10.6123C17.3616 11.6497 17.9444 13.0568 17.9444 14.5239C17.9444 15.9911 17.3616 17.3981 16.3241 18.4355C15.2867 19.473 13.8797 20.0558 12.4125 20.0558C10.9454 20.0558 9.53831 19.473 8.50089 18.4355C7.46346 17.3981 6.88064 15.9911 6.88064 14.5239C6.88064 13.0568 7.46346 11.6497 8.50089 10.6123C9.53831 9.57486 10.9454 8.99204 12.4125 8.99204ZM4.66789 39.4173C4.66789 38.9772 4.84274 38.5551 5.15397 38.2438C5.46519 37.9326 5.88731 37.7578 6.32745 37.7578H47.2633C47.7034 37.7578 48.1255 37.9326 48.4368 38.2438C48.748 38.5551 48.9228 38.9772 48.9228 39.4173V40.5237C48.9228 42.7244 48.0486 44.835 46.4925 46.3911C44.9363 47.9473 42.8258 48.8215 40.625 48.8215H12.9657C10.765 48.8215 8.6544 47.9473 7.09826 46.3911C5.54212 44.835 4.66789 42.7244 4.66789 40.5237V39.4173Z" fill="#59CE8F"/>
</g>
<defs>
<clipPath id="clip0_82_54">
<rect x="4.3275" y="6.67725" width="44.9358" height="42.4847" rx="10" fill="white"/>
</clipPath>
</defs>
</svg>
