<svg width="54" height="54" viewBox="0 0 54 54" fill="none" xmlns="http://www.w3.org/2000/svg">
<rect x="0.791321" y="0.141113" width="53.1059" height="53.1059" rx="20" fill="white"/>
<path d="M10.6159 8.23978V44.7501H30.5306V8.23978H10.6159ZM8.95634 4.92065H32.1902C32.6303 4.92065 33.0525 5.0955 33.3637 5.40673C33.6749 5.71796 33.8498 6.14007 33.8498 6.58021V46.4097C33.8498 46.8498 33.6749 47.2719 33.3637 47.5832C33.0525 47.8944 32.6303 48.0692 32.1902 48.0692H8.95634C8.5162 48.0692 8.09409 47.8944 7.78286 47.5832C7.47163 47.2719 7.29678 46.8498 7.29678 46.4097V6.58021C7.29678 6.14007 7.47163 5.71796 7.78286 5.40673C8.09409 5.0955 8.5162 4.92065 8.95634 4.92065Z" fill="#59CE8F"/>
<path d="M13.9351 14.8779H27.2115V18.1971H13.9351V14.8779ZM13.9351 24.8353H27.2115V28.1544H13.9351V24.8353ZM13.9351 34.7927H27.2115V38.1118H13.9351V34.7927ZM33.8498 28.1544H40.488V31.4735H33.8498V28.1544ZM33.8498 34.7927H40.488V38.1118H33.8498V34.7927ZM3.97769 44.75H50.4454V48.0691H3.97769V44.75Z" fill="#59CE8F"/>
<path d="M33.8498 21.5161V44.75H43.8071V21.5161H33.8498ZM32.1902 18.197H45.4667C45.9068 18.197 46.3289 18.3719 46.6402 18.6831C46.9514 18.9943 47.1262 19.4164 47.1262 19.8566V46.4096C47.1262 46.8497 46.9514 47.2718 46.6402 47.583C46.3289 47.8943 45.9068 48.0691 45.4667 48.0691H32.1902C31.7501 48.0691 31.3279 47.8943 31.0167 47.583C30.7055 47.2718 30.5306 46.8497 30.5306 46.4096V19.8566C30.5306 19.4164 30.7055 18.9943 31.0167 18.6831C31.3279 18.3719 31.7501 18.197 32.1902 18.197Z" fill="#59CE8F"/>
</svg>
